<svg width="30" height="30" viewBox="0 0 30 30" fill="none" xmlns="http://www.w3.org/2000/svg">
<path d="M6.70875 9.375H0V30H6.70875V9.375Z" fill="black"/>
<path d="M24.9825 9.61688C24.9113 9.59438 24.8438 9.57 24.7688 9.54937C24.6788 9.52875 24.5887 9.51188 24.4969 9.49688C24.1406 9.42563 23.7506 9.375 23.2931 9.375C19.3819 9.375 16.9013 12.2194 16.0838 13.3181V9.375H9.375V30H16.0838V18.75C16.0838 18.75 21.1538 11.6887 23.2931 16.875C23.2931 21.5044 23.2931 30 23.2931 30H30V16.0819C30 12.9656 27.8644 10.3688 24.9825 9.61688Z" fill="black"/>
<path d="M3.28125 6.5625C5.09343 6.5625 6.5625 5.09343 6.5625 3.28125C6.5625 1.46907 5.09343 0 3.28125 0C1.46907 0 0 1.46907 0 3.28125C0 5.09343 1.46907 6.5625 3.28125 6.5625Z" fill="black"/>
</svg>
